<svg xmlns="http://www.w3.org/2000/svg" width="16" height="16">
  <path fill="#14171a" d="M3.2 1.08c-.56 0-1.15.18-1.57.6A2.18 2.18 0 001 3.24v9.5c0 .55.17 1.13.57 1.55.41.43 1.01.62 1.57.62.55 0 1.15-.16 1.57-.6.42-.43.56-1.01.56-1.57v-2.2l.85 1.5a.99.99 0 000 .01c.18.3.4.58.7.79a.99.99 0 00.04.03c.35.22.75.3 1.12.3.38 0 .78-.08 1.14-.32a.99.99 0 000-.01c.3-.2.51-.47.7-.75a.99.99 0 00.02-.05l.85-1.52v2.22c0 .56.15 1.15.58 1.58.42.43 1.02.59 1.57.59s1.15-.16 1.57-.6c.42-.43.57-1.01.57-1.57v-9.5c0-.56-.18-1.15-.6-1.57-.42-.42-1-.6-1.56-.6-.45 0-.91.1-1.31.36a.99.99 0 00-.03.02c-.35.25-.6.58-.81.96a.99.99 0 000 .01L8.01 7.27 5.38 2.43a2.73 2.73 0 00-.85-.98c-.4-.28-.88-.37-1.33-.37z" />
  <path fill="#f0a96e" d="M3.15 13.93q-.56 0-.85-.3-.3-.32-.3-.88v-9.5q0-.58.31-.87.31-.31.89-.31.5 0 .77.2.3.19.54.63l3.51 6.42 3.52-6.42q.24-.44.52-.64.3-.2.77-.2.56 0 .86.32.31.3.31.87v9.5q0 1.18-1.15 1.18-1.16 0-1.16-1.18V6.73l-2.7 4.84q-.2.31-.42.48-.22.14-.58.14t-.59-.14q-.23-.17-.41-.48l-2.7-4.8v5.98q0 1.18-1.14 1.18z" />
</svg>
